#Comment line ignore any data following # character 
#Hierarchical Translation and Rotation (.htr) file 
[Header]	
#Header keywords are followed by a single value 
FileType HTR		#Single word string
DataType HTRS		#Translation followed by rotation and scale data
FileVersion 1		#integer
NumSegments 84		#integer
NumFrames 2		#integer
DataFrameRate 30		#integer, data frame rate in this file
EulerRotationOrder ZYX
CalibrationUnits mm
RotationUnits Degrees
GlobalAxisofGravity Y
BoneLengthAxis Y
ScaleFactor 1.00
[SegmentNames&Hierarchy]
#CHILD	PARENT
MASTER GLOBAL
root MASTER
chest root
L_mid_tent01 root
R_mid_tent01 root
spine01 root
Bip01_Neck chest
L_humerus chest
R_humerus chest
weapon_bone chest
Bip01_Head Bip01_Neck
eye_left_bone Bip01_Head
eye_right_bone Bip01_Head
L_forearm L_humerus
L_front_hand L_forearm
L_weapon_bone L_forearm
L_front_hand01_01 L_front_hand
L_front_hand02_01 L_front_hand
L_front_hand03_01 L_front_hand
L_front_hand01_02 L_front_hand01_01
L_front_hand02_02 L_front_hand02_01
L_front_hand03_02 L_front_hand03_01
R_forearm R_humerus
R_front_hand R_forearm
R_weapon_bone R_forearm
R_front_hand01_01 R_front_hand
R_front_hand02_01 R_front_hand
R_front_hand03_01 R_front_hand
R_front_hand01_02 R_front_hand01_01
R_front_hand02_02 R_front_hand02_01
R_front_hand03_02 R_front_hand03_01
null_rope01_connect L_mid_tent01
Rope1_Seg01 null_rope01_connect
Rope1_Seg02 Rope1_Seg01
Rope1_Seg03 Rope1_Seg02
Rope1_Seg04 Rope1_Seg03
Rope1_Seg05 Rope1_Seg04
Rope1_Seg06 Rope1_Seg05
Rope1_Seg07 Rope1_Seg06
Rope1_Seg09 Rope1_Seg07
L_mid_hand01 Rope1_Seg09
L_mid_hand02 Rope1_Seg09
L_mid_hand03 Rope1_Seg09
null_rope02_connect R_mid_tent01
Rope2_Seg01 null_rope02_connect
Rope2_Seg02 Rope2_Seg01
Rope2_Seg03 Rope2_Seg02
Rope2_Seg04 Rope2_Seg03
Rope2_Seg05 Rope2_Seg04
Rope2_Seg06 Rope2_Seg05
Rope2_Seg07 Rope2_Seg06
Rope2_Seg09 Rope2_Seg07
R_mid_hand01 Rope2_Seg09
R_mid_hand02 Rope2_Seg09
R_mid_hand03 Rope2_Seg09
spine02 spine01
spine03 spine02
pelvis spine03
null_rope03_connect pelvis
null_rope04_connect pelvis
Rope3_Seg01 null_rope03_connect
Rope3_Seg02 Rope3_Seg01
Rope3_Seg03 Rope3_Seg02
Rope3_Seg04 Rope3_Seg03
Rope3_Seg05 Rope3_Seg04
Rope3_Seg06 Rope3_Seg05
Rope3_Seg07 Rope3_Seg06
Rope3_Seg08 Rope3_Seg07
Rope3_Seg09 Rope3_Seg08
R_rear_hand01 Rope3_Seg09
R_rear_hand02 Rope3_Seg09
R_rear_hand03 Rope3_Seg09
Rope4_Seg01 null_rope04_connect
Rope4_Seg02 Rope4_Seg01
Rope4_Seg03 Rope4_Seg02
Rope4_Seg04 Rope4_Seg03
Rope4_Seg05 Rope4_Seg04
Rope4_Seg06 Rope4_Seg05
Rope4_Seg07 Rope4_Seg06
Rope4_Seg08 Rope4_Seg07
Rope4_Seg09 Rope4_Seg08
L_rear_hand01 Rope4_Seg09
L_rear_hand02 Rope4_Seg09
L_rear_hand03 Rope4_Seg09
[BasePosition]
#SegmentName Tx, Ty, Tz, Rx, Ry, Rz, BoneLength
MASTER 0.000000 0.000000 0.000000 -90.000000 0.000000 0.000000 10.000000 
root 0.000000 0.000000 0.000000 0.000000 0.000000 0.000000 10.000000 
chest 0.000000 0.000000 0.000000 0.000000 0.000000 0.000000 10.000000 
L_mid_tent01 0.000000 0.000000 0.000000 0.000000 0.000000 0.000000 10.000000 
R_mid_tent01 0.000000 0.000000 0.000000 0.000000 0.000000 0.000000 10.000000 
spine01 0.000000 0.000000 0.000000 0.000000 0.000000 0.000000 10.000000 
Bip01_Neck 0.000000 0.000000 0.000000 0.000000 0.000000 0.000000 10.000000 
L_humerus 0.000000 0.000000 0.000000 0.000000 0.000000 0.000000 10.000000 
R_humerus 0.000000 0.000000 0.000000 0.000000 0.000000 0.000000 10.000000 
weapon_bone 0.000000 0.000000 0.000000 0.000000 0.000000 0.000000 10.000000 
Bip01_Head 0.000000 0.000000 0.000000 0.000000 0.000000 0.000000 10.000000 
eye_left_bone 0.000000 0.000000 0.000000 0.000000 0.000000 0.000000 10.000000 
eye_right_bone 0.000000 0.000000 0.000000 0.000000 0.000000 0.000000 10.000000 
L_forearm 0.000000 0.000000 0.000000 0.000000 0.000000 0.000000 10.000000 
L_front_hand 0.000000 0.000000 0.000000 0.000000 0.000000 0.000000 10.000000 
L_weapon_bone 0.000000 0.000000 0.000000 0.000000 0.000000 0.000000 10.000000 
L_front_hand01_01 0.000000 0.000000 0.000000 0.000000 0.000000 0.000000 10.000000 
L_front_hand02_01 0.000000 0.000000 0.000000 0.000000 0.000000 0.000000 10.000000 
L_front_hand03_01 0.000000 0.000000 0.000000 0.000000 0.000000 0.000000 10.000000 
L_front_hand01_02 0.000000 0.000000 0.000000 0.000000 0.000000 0.000000 10.000000 
L_front_hand02_02 0.000000 0.000000 0.000000 0.000000 0.000000 0.000000 10.000000 
L_front_hand03_02 0.000000 0.000000 0.000000 0.000000 0.000000 0.000000 10.000000 
R_forearm 0.000000 0.000000 0.000000 0.000000 0.000000 0.000000 10.000000 
R_front_hand 0.000000 0.000000 0.000000 0.000000 0.000000 0.000000 10.000000 
R_weapon_bone 0.000000 0.000000 0.000000 0.000000 0.000000 0.000000 10.000000 
R_front_hand01_01 0.000000 0.000000 0.000000 0.000000 0.000000 0.000000 10.000000 
R_front_hand02_01 0.000000 0.000000 0.000000 0.000000 0.000000 0.000000 10.000000 
R_front_hand03_01 0.000000 0.000000 0.000000 0.000000 0.000000 0.000000 10.000000 
R_front_hand01_02 0.000000 0.000000 0.000000 0.000000 0.000000 0.000000 10.000000 
R_front_hand02_02 0.000000 0.000000 0.000000 0.000000 0.000000 0.000000 10.000000 
R_front_hand03_02 0.000000 0.000000 0.000000 0.000000 0.000000 0.000000 10.000000 
null_rope01_connect 0.000000 0.000000 0.000000 0.000000 0.000000 0.000000 10.000000 
Rope1_Seg01 0.000000 0.000000 0.000000 0.000000 0.000000 0.000000 10.000000 
Rope1_Seg02 0.000000 0.000000 0.000000 0.000000 0.000000 0.000000 10.000000 
Rope1_Seg03 0.000000 0.000000 0.000000 0.000000 0.000000 0.000000 10.000000 
Rope1_Seg04 0.000000 0.000000 0.000000 0.000000 0.000000 0.000000 10.000000 
Rope1_Seg05 0.000000 0.000000 0.000000 0.000000 0.000000 0.000000 10.000000 
Rope1_Seg06 0.000000 0.000000 0.000000 0.000000 0.000000 0.000000 10.000000 
Rope1_Seg07 0.000000 0.000000 0.000000 0.000000 0.000000 0.000000 10.000000 
Rope1_Seg09 0.000000 0.000000 0.000000 0.000000 0.000000 0.000000 10.000000 
L_mid_hand01 0.000000 0.000000 0.000000 0.000000 0.000000 0.000000 10.000000 
L_mid_hand02 0.000000 0.000000 0.000000 0.000000 0.000000 0.000000 10.000000 
L_mid_hand03 0.000000 0.000000 0.000000 0.000000 0.000000 0.000000 10.000000 
null_rope02_connect 0.000000 0.000000 0.000000 0.000000 0.000000 0.000000 10.000000 
Rope2_Seg01 0.000000 0.000000 0.000000 0.000000 0.000000 0.000000 10.000000 
Rope2_Seg02 0.000000 0.000000 0.000000 0.000000 0.000000 0.000000 10.000000 
Rope2_Seg03 0.000000 0.000000 0.000000 0.000000 0.000000 0.000000 10.000000 
Rope2_Seg04 0.000000 0.000000 0.000000 0.000000 0.000000 0.000000 10.000000 
Rope2_Seg05 0.000000 0.000000 0.000000 0.000000 0.000000 0.000000 10.000000 
Rope2_Seg06 0.000000 0.000000 0.000000 0.000000 0.000000 0.000000 10.000000 
Rope2_Seg07 0.000000 0.000000 0.000000 0.000000 0.000000 0.000000 10.000000 
Rope2_Seg09 0.000000 0.000000 0.000000 0.000000 0.000000 0.000000 10.000000 
R_mid_hand01 0.000000 0.000000 0.000000 0.000000 0.000000 0.000000 10.000000 
R_mid_hand02 0.000000 0.000000 0.000000 0.000000 0.000000 0.000000 10.000000 
R_mid_hand03 0.000000 0.000000 0.000000 0.000000 0.000000 0.000000 10.000000 
spine02 0.000000 0.000000 0.000000 0.000000 0.000000 0.000000 10.000000 
spine03 0.000000 0.000000 0.000000 0.000000 0.000000 0.000000 10.000000 
pelvis 0.000000 0.000000 0.000000 0.000000 0.000000 0.000000 10.000000 
null_rope03_connect 0.000000 0.000000 0.000000 0.000000 0.000000 0.000000 10.000000 
null_rope04_connect 0.000000 0.000000 0.000000 0.000000 0.000000 0.000000 10.000000 
Rope3_Seg01 0.000000 0.000000 0.000000 0.000000 0.000000 0.000000 10.000000 
Rope3_Seg02 0.000000 0.000000 0.000000 0.000000 0.000000 0.000000 10.000000 
Rope3_Seg03 0.000000 0.000000 0.000000 0.000000 0.000000 0.000000 10.000000 
Rope3_Seg04 0.000000 0.000000 0.000000 0.000000 0.000000 0.000000 10.000000 
Rope3_Seg05 0.000000 0.000000 0.000000 0.000000 0.000000 0.000000 10.000000 
Rope3_Seg06 0.000000 0.000000 0.000000 0.000000 0.000000 0.000000 10.000000 
Rope3_Seg07 0.000000 0.000000 0.000000 0.000000 0.000000 0.000000 10.000000 
Rope3_Seg08 0.000000 0.000000 0.000000 0.000000 0.000000 0.000000 10.000000 
Rope3_Seg09 0.000000 0.000000 0.000000 0.000000 0.000000 0.000000 10.000000 
R_rear_hand01 0.000000 0.000000 0.000000 0.000000 0.000000 0.000000 10.000000 
R_rear_hand02 0.000000 0.000000 0.000000 0.000000 0.000000 0.000000 10.000000 
R_rear_hand03 0.000000 0.000000 0.000000 0.000000 0.000000 0.000000 10.000000 
Rope4_Seg01 0.000000 0.000000 0.000000 0.000000 0.000000 0.000000 10.000000 
Rope4_Seg02 0.000000 0.000000 0.000000 0.000000 0.000000 0.000000 10.000000 
Rope4_Seg03 0.000000 0.000000 0.000000 0.000000 0.000000 0.000000 10.000000 
Rope4_Seg04 0.000000 0.000000 0.000000 0.000000 0.000000 0.000000 10.000000 
Rope4_Seg05 0.000000 0.000000 0.000000 0.000000 0.000000 0.000000 10.000000 
Rope4_Seg06 0.000000 0.000000 0.000000 0.000000 0.000000 0.000000 10.000000 
Rope4_Seg07 0.000000 0.000000 0.000000 0.000000 0.000000 0.000000 10.000000 
Rope4_Seg08 0.000000 0.000000 0.000000 0.000000 0.000000 0.000000 10.000000 
Rope4_Seg09 0.000000 0.000000 0.000000 0.000000 0.000000 0.000000 10.000000 
L_rear_hand01 0.000000 0.000000 0.000000 0.000000 0.000000 0.000000 10.000000 
L_rear_hand02 0.000000 0.000000 0.000000 0.000000 0.000000 0.000000 10.000000 
L_rear_hand03 0.000000 0.000000 0.000000 0.000000 0.000000 0.000000 10.000000 
#Beginning of Data. Separated by tabs
#Fr	Tx	Ty	Tz	Rx	Ry	Rz	SF
[MASTER]
44 -0.000818 5664.843262 -3117.672852 0.001660 0.001660 0.001660 6466.090820
45 -0.000835 5816.122559 -3060.050049 0.001660 0.001660 0.001660 6572.000488
[root]
44 -12.352194 -64.534912 1361.399414 -87.699821 -35.428158 -91.001610 1362.984131
45 -15.276127 -63.087769 1460.411865 -90.567215 -35.558605 -90.207474 1461.853760
[chest]
44 -84.512650 -34.090519 0.000000 -2.901278 0.571902 168.924240 91.129311
45 -84.512650 -34.090519 0.000000 -2.429894 0.589932 170.466995 91.129311
[L_mid_tent01]
44 27.299206 22.177725 -249.918289 -0.173841 36.621185 68.161697 252.381165
45 27.299202 22.177729 -249.918289 -0.173841 36.621185 68.161697 252.381149
[R_mid_tent01]
44 23.228794 24.509907 226.238495 161.842850 -26.101652 83.323860 228.744751
45 23.228794 24.509907 226.238495 161.842850 -26.101652 83.323860 228.744751
[spine01]
44 -0.361383 -0.195265 0.000000 0.001845 0.001451 13.654368 0.410763
45 -0.361383 -0.195265 0.000000 0.001845 0.001451 13.654368 0.410763
[Bip01_Neck]
44 165.484543 71.581718 0.000119 176.643677 -1.657967 43.431911 180.302734
45 165.484543 71.581718 0.000119 176.643677 -1.657967 43.431911 180.302734
[L_humerus]
44 -13.983130 -135.272980 -120.471481 165.869736 56.138649 -101.392258 181.680161
45 -13.983130 -135.272980 -120.471481 162.302368 63.426430 -105.510719 181.680161
[R_humerus]
44 -13.983309 -135.273102 125.287651 -175.119247 -52.292709 -89.407700 184.909012
45 -13.983309 -135.273102 125.287651 -174.074417 -59.768330 -90.663719 184.909012
[weapon_bone]
44 235.964890 -300.705902 0.000000 0.000000 -89.951546 -128.212341 382.234833
45 235.964890 -300.705902 0.000000 0.000000 -89.951546 -128.212341 382.234833
[Bip01_Head]
44 213.437714 185.732971 11.552022 5.200446 6.151311 -43.834991 283.171051
45 213.442383 185.718842 11.734886 5.200446 6.151311 -43.834991 283.172821
[eye_left_bone]
44 -24.626970 125.451866 -64.772606 0.000000 -90.000000 -99.840431 143.318359
45 -24.626970 125.451866 -64.772606 0.000000 -90.000000 -99.840431 143.318359
[eye_right_bone]
44 -24.626970 125.451866 64.327362 0.000000 -89.965736 80.156380 143.117676
45 -24.626970 125.451866 64.327362 0.000000 -89.965736 80.156380 143.117676
[L_forearm]
44 322.776093 0.000000 -0.000119 0.000119 -0.002344 -95.807457 322.776093
45 322.776093 0.000000 -0.000119 0.000119 -0.002344 -95.807457 322.776093
[L_front_hand]
44 241.149185 -0.042021 -3.300071 -178.667953 -1.835447 -27.422350 241.171753
45 241.149185 -0.042021 -3.300071 -178.667953 -1.835447 -27.422350 241.171753
[L_weapon_bone]
44 156.183838 0.000000 0.000000 0.000014 0.000007 0.000001 156.183838
45 156.183838 0.000000 0.000000 0.000014 0.000007 0.000001 156.183838
[L_front_hand01_01]
44 86.095154 20.947098 -0.655860 -0.366594 -0.477154 75.385574 88.609184
45 86.095154 20.947098 -0.655860 -0.366594 -0.477154 75.385574 88.609184
[L_front_hand02_01]
44 86.935165 -11.437475 24.513514 154.399796 -59.883835 -61.369587 91.046425
45 86.935165 -11.437475 24.513514 154.399796 -59.883835 -61.369587 91.046425
[L_front_hand03_01]
44 86.637497 -14.123976 -20.424902 -153.913849 58.118122 -62.702866 90.126129
45 86.637497 -14.123976 -20.424902 -153.913849 58.118122 -62.702866 90.126129
[L_front_hand01_02]
44 71.020905 -0.000179 0.000030 0.000334 -0.002323 -106.378036 71.020905
45 71.020905 -0.000179 0.000030 0.000334 -0.002323 -106.378868 71.020905
[L_front_hand02_02]
44 71.020927 -0.000119 0.000060 0.000334 -0.002323 -106.378036 71.020927
45 71.020927 -0.000119 0.000060 0.000334 -0.002323 -106.378868 71.020927
[L_front_hand03_02]
44 71.020905 -0.000060 0.000060 0.000334 -0.002323 -106.378036 71.020905
45 71.020905 -0.000060 0.000060 0.000334 -0.002323 -106.378868 71.020905
[R_forearm]
44 322.776428 -0.000060 0.000030 0.209504 0.012586 -94.339050 322.776428
45 322.776428 -0.000060 0.000030 0.209504 0.012586 -94.339050 322.776428
[R_front_hand]
44 238.847015 -0.006795 2.210259 -2.635298 -10.645461 -26.312506 238.857239
45 238.847015 -0.006795 2.210259 -2.635298 -10.645461 -26.312506 238.857239
[R_weapon_bone]
44 155.664093 0.002503 -0.000030 0.003487 0.001180 -90.988930 155.664078
45 155.664093 0.002503 -0.000030 0.003487 0.001180 -90.988930 155.664078
[R_front_hand01_01]
44 87.624611 14.231146 22.918642 -154.633499 -59.950619 61.746044 91.683487
45 87.624611 14.231146 22.918642 -154.633499 -59.950619 61.746044 91.683487
[R_front_hand02_01]
44 89.356956 14.367283 -19.491137 154.602661 58.302849 63.744389 92.579636
45 89.356956 14.367283 -19.491137 154.602661 58.302849 63.744389 92.579636
[R_front_hand03_01]
44 87.286232 -22.307278 -0.143439 0.162155 -0.423168 -75.767921 90.091743
45 87.286232 -22.307278 -0.143439 0.162155 -0.423168 -75.767921 90.091743
[R_front_hand01_02]
44 71.020905 0.000060 0.000119 0.002323 -0.000334 106.381714 71.020905
45 71.020905 0.000060 0.000119 0.002323 -0.000334 106.381714 71.020905
[R_front_hand02_02]
44 71.020844 -0.000030 -0.000119 0.002323 -0.000334 106.381714 71.020836
45 71.020844 -0.000030 -0.000119 0.002323 -0.000334 106.381714 71.020836
[R_front_hand03_02]
44 71.020905 0.000000 0.000030 0.002323 -0.000334 106.381714 71.020905
45 71.020905 0.000000 0.000030 0.002323 -0.000334 106.381714 71.020905
[null_rope01_connect]
44 328.732483 0.000000 -0.000238 -121.071754 -54.650425 177.838699 328.732483
45 328.732483 0.000000 -0.000238 -123.029495 -52.674110 -179.603699 328.732483
[Rope1_Seg01]
44 0.000000 0.000000 0.000000 162.749374 44.003254 -153.615891 0.000000
45 0.000000 0.000000 0.000000 159.520767 43.058243 -155.363785 0.000000
[Rope1_Seg02]
44 139.999863 -0.000179 0.000000 14.971924 -28.256422 3.564497 139.999863
45 139.999863 -0.000179 0.000000 15.401070 -27.238016 2.344055 139.999863
[Rope1_Seg03]
44 139.999924 0.000060 -0.000060 -1.076566 -41.116661 16.068686 139.999924
45 139.999924 0.000060 -0.000060 0.479126 -40.711323 13.970953 139.999924
[Rope1_Seg04]
44 139.999924 -0.000060 -0.000119 -4.014303 -18.548414 12.174366 139.999924
45 139.999924 -0.000060 -0.000119 -4.180605 -19.778131 11.678641 139.999924
[Rope1_Seg05]
44 139.999832 0.000119 -0.000060 2.081130 -6.480908 12.972126 139.999832
45 139.999832 0.000119 -0.000060 1.249619 -7.860960 13.451881 139.999832
[Rope1_Seg06]
44 139.999954 0.000119 -0.000060 2.344198 -3.961308 7.995238 139.999954
45 139.999954 0.000119 -0.000060 2.092069 -4.781268 8.656038 139.999954
[Rope1_Seg07]
44 139.999985 0.000060 0.000000 1.297225 -2.522434 4.337585 139.999985
45 139.999985 0.000060 0.000000 1.023807 -2.959333 4.513292 139.999985
[Rope1_Seg09]
44 121.602913 0.000119 -0.000089 -89.793175 -1.359789 0.847147 121.602913
45 121.602913 0.000119 -0.000089 -89.793175 -1.359789 0.847147 121.602913
[L_mid_hand01]
44 103.859421 1.038730 8.195221 130.544373 -67.584534 -38.866943 104.187431
45 103.859421 1.038730 8.195221 130.544373 -67.584534 -38.866943 104.187431
[L_mid_hand02]
44 105.572853 -4.139662 -10.864139 -168.923172 43.409309 -73.498894 106.211075
45 105.572853 -4.139662 -10.864139 -168.923172 43.409309 -73.498886 106.211075
[L_mid_hand03]
44 104.641464 17.579376 -3.913581 -6.012627 17.808174 74.893669 106.179977
45 104.641464 17.579376 -3.913581 -6.012627 17.808174 74.893669 106.179977
[null_rope02_connect]
44 328.732849 0.000179 -0.000119 -104.004242 57.837818 29.132011 328.732849
45 328.732849 0.000179 -0.000119 -100.483528 59.185680 33.140900 328.732849
[Rope2_Seg01]
44 0.000040 0.000007 0.000146 5.524697 9.368885 -39.191048 0.000151
45 0.000039 0.000003 0.000149 6.831720 11.512369 -40.148262 0.000154
[Rope2_Seg02]
44 139.999741 -0.000060 -0.000119 -102.112007 15.406714 4.294808 139.999756
45 139.999741 -0.000060 -0.000119 -117.975929 15.597975 3.451540 139.999756
[Rope2_Seg03]
44 140.000107 0.000030 0.000000 -52.875015 -24.766891 75.502937 140.000107
45 140.000107 0.000030 0.000000 -50.282089 -36.775810 72.827209 140.000107
[Rope2_Seg04]
44 139.999802 0.000000 -0.000060 -4.619685 -30.784800 19.518774 139.999802
45 139.999802 0.000000 -0.000060 -4.704344 -31.445105 18.706118 139.999802
[Rope2_Seg05]
44 139.999985 -0.000060 0.000119 -3.226202 -11.025003 0.492048 139.999985
45 139.999985 -0.000060 0.000119 -3.916059 -11.762266 0.136571 139.999985
[Rope2_Seg06]
44 139.999893 -0.000030 -0.000119 -4.277846 -8.450313 -0.689578 139.999893
45 139.999893 -0.000030 -0.000119 -5.582860 -9.271681 -1.289029 139.999893
[Rope2_Seg07]
44 139.999893 0.000060 -0.000060 -2.434501 -4.669056 0.016757 139.999893
45 139.999893 0.000060 -0.000060 -3.318017 -4.993873 -0.398379 139.999893
[Rope2_Seg09]
44 121.338966 0.000089 -0.000060 33.793236 -1.359788 -0.847141 121.338966
45 121.338966 0.000089 -0.000060 33.793236 -1.359788 -0.847141 121.338966
[R_mid_hand01]
44 104.680779 11.144459 -10.335981 -16.212063 45.237240 70.462845 105.778534
45 104.680779 11.144459 -10.335981 -16.212063 45.237247 70.462852 105.778534
[R_mid_hand02]
44 104.070427 2.443552 8.231699 49.067368 -67.749771 39.286453 104.424065
45 104.070427 2.443552 8.231699 49.067368 -67.749771 39.286453 104.424065
[R_mid_hand03]
44 106.028137 -11.221827 -5.996406 -177.101105 15.551026 -76.585571 106.788818
45 106.028137 -11.221827 -5.996406 -177.101105 15.551026 -76.585571 106.788818
[spine02]
44 129.756927 0.001550 0.000119 -1.023899 -3.926965 6.770993 129.756927
45 129.756927 0.001550 0.000119 -1.023899 -3.926965 6.770993 129.756927
[spine03]
44 78.614471 0.087141 -4.898872 1.040681 4.146420 4.212376 78.767006
45 78.614487 0.087134 -4.898872 1.040681 4.146420 4.212376 78.767021
[pelvis]
44 169.435242 0.051022 0.000000 0.019518 -0.190233 -10.721436 169.435257
45 169.435242 0.051022 0.000000 0.019518 -0.190233 -10.721436 169.435257
[null_rope03_connect]
44 -1.257226 -2.466202 137.391083 5.901462 -88.372375 105.711212 137.418976
45 -1.257226 -2.466202 137.391083 -135.664230 -88.995361 -112.610901 137.418976
[null_rope04_connect]
44 -1.259640 -2.480268 -137.844437 5.901462 -88.372375 105.711212 137.872513
45 -1.259640 -2.480268 -137.844437 -135.664230 -88.995361 -112.610901 137.872513
[Rope3_Seg01]
44 -0.000001 -0.000587 -0.000153 -144.705261 -39.815063 -60.663399 0.000606
45 -0.000000 -0.000598 -0.000153 -144.791824 -38.737553 -59.766315 0.000618
[Rope3_Seg02]
44 139.999924 -0.000119 0.000060 -22.121552 1.725389 -37.960033 139.999924
45 139.999924 -0.000119 0.000060 -21.024189 -0.432297 -37.839489 139.999924
[Rope3_Seg03]
44 139.999924 -0.000119 0.000119 -52.911491 15.215154 -32.471828 139.999924
45 139.999924 -0.000119 0.000119 -60.394215 11.962411 -34.767601 139.999924
[Rope3_Seg04]
44 139.999924 0.000119 0.000000 -59.581379 50.689575 -33.956875 139.999924
45 139.999924 0.000119 0.000000 -48.186493 55.059963 -18.700960 139.999924
[Rope3_Seg05]
44 139.999924 -0.000238 0.000060 -1.207434 22.455730 7.619260 139.999924
45 139.999924 -0.000238 0.000060 0.103091 19.004040 9.572576 139.999924
[Rope3_Seg06]
44 139.999893 -0.000119 -0.000060 0.567889 5.528270 2.188064 139.999893
45 139.999893 -0.000119 -0.000060 0.669371 5.009402 2.585615 139.999893
[Rope3_Seg07]
44 139.999771 0.000060 -0.000119 0.685893 3.041758 1.172659 139.999771
45 139.999771 0.000060 -0.000119 0.724039 2.807368 1.414567 139.999771
[Rope3_Seg08]
44 139.999985 -0.000060 0.000000 0.663961 1.694472 0.634719 139.999985
45 139.999985 -0.000060 0.000000 0.685015 1.579771 0.772830 139.999985
[Rope3_Seg09]
44 90.185997 -0.000179 -0.000060 89.793228 -1.359877 -0.847183 90.185997
45 90.185997 -0.000179 -0.000060 89.793228 -1.359877 -0.847183 90.185997
[R_rear_hand01]
44 103.366196 -6.073594 -10.757982 -177.714203 24.565960 -73.910950 104.101845
45 103.366196 -6.073594 -10.757982 -177.714203 24.565960 -73.910950 104.101845
[R_rear_hand02]
44 100.509819 12.039542 -7.992327 -12.874829 36.868488 72.167213 101.543350
45 100.509819 12.039542 -7.992327 -12.874829 36.868488 72.167213 101.543350
[R_rear_hand03]
44 101.539970 5.215704 5.435467 71.484581 -71.816628 21.513813 101.819031
45 101.539970 5.215704 5.435467 71.484581 -71.816628 21.513813 101.819031
[Rope4_Seg01]
44 -0.000040 -0.000008 0.000000 74.362740 -43.521599 -132.818634 0.000041
45 -0.000039 -0.000004 0.000000 75.331055 -45.256313 -132.642258 0.000039
[Rope4_Seg02]
44 139.999985 0.000060 0.000119 25.148251 -34.149292 6.857752 139.999985
45 139.999985 0.000060 0.000119 24.691093 -33.855022 8.218472 139.999985
[Rope4_Seg03]
44 139.999924 0.000000 -0.000238 51.746742 -26.955009 24.060770 139.999924
45 139.999924 0.000000 -0.000238 50.682575 -27.820347 24.350706 139.999924
[Rope4_Seg04]
44 139.999985 0.000000 0.000119 33.350719 0.796088 58.704895 139.999985
45 139.999985 0.000000 0.000119 31.449917 8.104429 57.324467 139.999985
[Rope4_Seg05]
44 139.999802 -0.000060 -0.000119 2.606222 11.465927 17.928537 139.999802
45 139.999802 -0.000060 -0.000119 1.818364 11.530399 15.708844 139.999802
[Rope4_Seg06]
44 139.999924 0.000000 0.000060 -0.153534 3.175977 4.580093 139.999924
45 139.999924 0.000000 0.000060 -0.229437 3.202923 4.305646 139.999924
[Rope4_Seg07]
44 139.999802 0.000000 0.000000 -0.152284 1.751385 2.551821 139.999802
45 139.999802 0.000000 0.000000 -0.183117 1.786459 2.427615 139.999802
[Rope4_Seg08]
44 139.999924 0.000000 0.000119 -1.658020 0.977085 1.431904 139.999924
45 139.999924 0.000000 0.000119 -1.673074 1.001125 1.372069 139.999924
[Rope4_Seg09]
44 90.185791 0.000060 0.000060 -135.617828 2.228885 0.850567 90.185791
45 90.185791 0.000060 0.000060 -135.617828 2.228885 0.850567 90.185791
[L_rear_hand01]
44 101.696655 -8.392275 -7.654577 -12.874829 -36.868488 107.832764 102.329041
45 101.696655 -8.392275 -7.654577 -12.874829 -36.868488 107.832764 102.329041
[L_rear_hand02]
44 102.726799 -1.568258 5.773216 71.484581 71.816628 158.486160 102.900848
45 102.726799 -1.568258 5.773216 71.484581 71.816628 158.486160 102.900848
[L_rear_hand03]
44 104.552910 9.721220 -10.420293 -177.714203 -24.565960 -106.089035 105.519653
45 104.552910 9.721220 -10.420293 -177.714203 -24.565960 -106.089035 105.519653
